<?xml version="1.0" standalone="no"?>
<!DOCTYPE svg PUBLIC "-//W3C//DTD SVG 20010904//EN"
 "http://www.w3.org/TR/2001/REC-SVG-20010904/DTD/svg10.dtd">
<svg version="1.0" xmlns="http://www.w3.org/2000/svg"
 width="1063.000000pt" height="681.000000pt" viewBox="0 0 1063.000000 681.000000"
 preserveAspectRatio="xMidYMid meet">

<g transform="translate(0.000000,681.000000) scale(0.100000,-0.100000)"
fill="#000000" stroke="none">
<path d="M3806 6414 c-320 -58 -628 -259 -808 -528 l-59 -89 -102 -3 c-267 -6
-502 -112 -684 -308 -158 -170 -253 -408 -253 -638 l0 -76 -86 -46 c-277 -147
-443 -404 -461 -711 -19 -339 166 -661 469 -816 75 -38 213 -77 299 -85 38 -4
69 -10 69 -14 0 -4 -88 -211 -195 -460 -107 -250 -194 -454 -192 -455 1 -1
110 -10 241 -19 132 -9 241 -18 243 -20 2 -2 -165 -390 -371 -862 l-375 -858
49 50 c27 27 542 573 1144 1214 l1094 1165 -77 6 c-42 4 -187 10 -323 14 -137
4 -248 9 -248 11 0 2 22 52 50 111 l49 108 1758 5 c1361 5 1768 9 1803 18 163
46 302 124 409 231 173 172 254 366 253 606 -1 240 -89 451 -256 615 -40 39
-56 62 -56 81 0 48 -48 215 -83 293 -162 349 -483 561 -885 584 l-124 7 -23
70 c-49 151 -114 261 -221 375 -199 211 -453 320 -746 320 -87 0 -250 -30
-330 -60 l-50 -19 -93 50 c-202 108 -371 149 -602 148 -81 0 -184 -7 -227 -15z
m444 -223 c133 -30 316 -107 343 -145 14 -21 65 -191 72 -242 l6 -51 -49 5
c-66 6 -233 -14 -322 -39 -87 -24 -197 -77 -267 -130 -38 -28 -62 -39 -88 -39
-89 0 -150 -59 -150 -146 0 -40 6 -58 28 -87 83 -108 257 -47 257 90 0 36 4
41 63 80 120 82 265 123 432 123 84 0 95 -2 95 -17 0 -40 -13 -61 -46 -76 -92
-44 -100 -185 -15 -246 21 -15 44 -21 85 -21 52 0 59 3 95 39 45 45 55 88 33
146 -9 24 -13 60 -11 90 10 132 2 291 -21 384 -25 106 -28 98 57 130 253 96
559 47 766 -124 153 -127 253 -302 282 -498 7 -42 5 -47 -37 -94 -126 -142
-198 -332 -198 -525 0 -75 -2 -84 -27 -110 -20 -21 -27 -40 -30 -80 -5 -67 19
-110 81 -139 55 -27 103 -20 151 22 69 61 69 160 -2 218 l-36 30 6 78 c13 163
77 317 176 424 l56 62 95 10 c114 12 240 -6 357 -53 208 -84 377 -261 447
-471 31 -93 47 -199 32 -204 -6 -2 -51 -9 -101 -16 -49 -6 -127 -22 -172 -34
l-82 -22 -22 66 c-43 133 -142 272 -253 356 -50 38 -69 59 -76 85 -13 49 -34
75 -74 94 -100 47 -206 -18 -206 -126 0 -57 31 -106 84 -132 33 -16 45 -17 85
-8 42 10 49 9 84 -15 96 -66 223 -252 230 -336 2 -26 -4 -30 -88 -66 -49 -21
-178 -78 -285 -128 -336 -156 -439 -187 -615 -188 l-120 0 -7 111 c-17 280
-106 530 -242 681 -51 57 -55 77 -26 140 44 98 121 185 233 264 66 46 69 47
100 34 45 -19 110 -5 148 31 61 59 61 149 -1 209 -41 39 -123 47 -173 16 -32
-19 -67 -72 -67 -100 0 -6 -35 -34 -77 -62 -138 -93 -227 -192 -284 -313 l-30
-64 -64 29 c-104 47 -200 70 -325 76 -108 6 -117 8 -148 34 -65 57 -179 33
-216 -45 -32 -69 -11 -149 51 -187 52 -32 132 -23 176 19 30 30 38 32 100 32
325 0 572 -211 662 -563 23 -91 47 -287 35 -287 -3 0 -36 24 -75 53 -81 61
-173 167 -239 277 -46 75 -47 80 -36 115 31 95 -38 185 -142 185 -105 0 -169
-107 -122 -206 17 -35 69 -74 98 -74 9 0 32 -26 53 -57 89 -142 113 -173 193
-257 134 -139 246 -204 400 -232 203 -36 410 7 724 153 418 193 547 243 746
283 58 12 142 24 187 27 94 7 102 3 168 -87 85 -116 127 -243 127 -385 0 -171
-64 -327 -182 -444 -77 -76 -149 -122 -252 -159 l-73 -27 -1820 -5 -1820 -5
-148 -323 c-82 -178 -147 -325 -145 -327 2 -2 112 -7 246 -11 133 -4 241 -10
240 -14 -4 -9 -1058 -1130 -1063 -1130 -5 0 -5 0 189 444 91 209 164 381 162
383 -1 2 -110 10 -242 19 -131 9 -240 17 -242 19 -2 2 89 214 202 471 l204
469 -226 6 c-176 5 -239 10 -282 23 -169 54 -314 176 -387 327 -94 191 -95
379 -3 567 70 140 200 260 343 313 l60 23 64 -34 c170 -88 365 -259 461 -405
41 -61 52 -86 47 -105 -23 -99 -15 -139 39 -189 36 -34 118 -40 163 -12 67 42
87 111 55 184 -16 37 -29 49 -69 68 -39 18 -55 32 -74 68 -13 25 -52 83 -86
128 l-62 82 57 12 c73 15 266 6 346 -15 202 -56 400 -179 666 -417 349 -311
445 -366 663 -376 153 -8 311 28 462 105 59 30 81 36 137 36 71 1 102 16 142
69 38 52 17 156 -39 193 -14 9 -45 19 -69 21 -79 9 -143 -39 -156 -117 -4 -27
-14 -39 -45 -57 -125 -71 -321 -119 -442 -109 -148 12 -237 65 -510 304 -338
296 -492 399 -694 466 -188 63 -363 71 -547 26 -46 -11 -87 -20 -91 -20 -4 0
-41 25 -81 55 -41 31 -111 77 -155 102 -44 26 -83 51 -86 56 -14 20 -19 157
-8 232 24 174 83 291 214 421 78 78 106 99 186 137 126 61 228 82 371 74 59
-3 119 -12 134 -19 30 -15 90 -109 163 -255 81 -164 128 -309 156 -477 14 -85
14 -90 -4 -103 -11 -7 -27 -33 -36 -58 -41 -107 36 -205 151 -192 123 13 168
176 71 254 -18 15 -26 37 -39 123 -10 58 -28 142 -41 188 -13 45 -21 82 -17
82 21 0 132 -45 189 -76 188 -104 317 -262 385 -474 44 -136 45 -149 17 -189
-34 -47 -37 -107 -9 -155 56 -96 184 -99 245 -7 42 62 22 155 -41 196 -18 12
-28 32 -37 73 -29 140 -96 298 -174 408 -61 85 -187 200 -284 258 -82 49 -282
125 -331 126 -22 0 -33 14 -80 107 -30 59 -85 152 -121 207 l-66 101 36 58
c20 32 69 94 108 137 150 161 323 261 538 310 112 26 321 26 435 1z"/>
<path d="M8671 2753 c-22 -19 -491 -1028 -491 -1057 0 -9 11 -28 25 -41 23
-24 30 -25 150 -25 143 0 149 3 180 84 l18 46 165 -2 164 -3 18 -44 c30 -77
44 -83 193 -79 114 3 130 5 143 22 8 11 14 30 14 43 0 37 -457 1024 -486 1051
-30 26 -64 28 -93 5z m73 -55 c27 -44 456 -985 456 -1002 0 -15 -13 -16 -116
-14 -129 3 -120 -1 -154 81 l-19 47 -194 0 -194 0 -28 -65 -27 -65 -114 0
c-83 0 -116 4 -119 13 -6 14 450 1008 468 1019 19 12 25 10 41 -14z"/>
<path d="M8655 2145 c-31 -81 -55 -148 -52 -151 2 -3 56 -3 120 -2 l115 3 -57
142 c-31 78 -59 144 -63 148 -3 3 -31 -60 -63 -140z m93 -52 l21 -53 -50 0
c-27 0 -49 2 -49 4 0 18 45 115 50 109 4 -4 16 -32 28 -60z"/>
<path d="M7735 2728 c-11 -6 -23 -16 -27 -22 -4 -6 -8 -241 -8 -523 0 -452 2
-513 16 -527 23 -24 53 -28 168 -24 85 2 109 6 123 21 17 17 18 52 18 532 0
480 -1 515 -18 532 -15 15 -38 18 -135 21 -76 1 -124 -2 -137 -10z m239 -54
c9 -24 7 -967 -2 -982 -6 -9 -36 -12 -113 -10 l-104 3 -3 490 c-1 270 0 496 3
503 3 8 34 12 109 12 85 0 105 -3 110 -16z"/>
<path d="M4002 2678 c-9 -9 -12 -129 -12 -492 0 -265 4 -487 8 -494 7 -9 77
-12 318 -10 l309 3 0 95 0 95 -202 3 -203 2 0 70 0 70 178 2 177 3 0 90 0 90
-177 3 -178 2 0 140 0 140 203 2 202 3 0 95 0 95 -305 3 c-229 2 -309 -1 -318
-10z"/>
<path d="M5034 2402 c-28 -10 -70 -32 -94 -50 l-44 -32 -16 42 -16 43 -69 0
-70 0 0 -360 0 -360 90 -3 c76 -2 92 0 102 14 10 13 13 75 13 231 0 234 4 253
59 292 69 49 165 31 206 -39 18 -32 20 -57 25 -265 l5 -230 95 0 95 0 3 254
c2 203 -1 265 -13 306 -20 70 -81 138 -142 159 -61 21 -165 20 -229 -2z"/>
<path d="M5731 2404 c-131 -47 -207 -143 -233 -292 -29 -173 49 -335 200 -409
52 -26 66 -28 172 -28 105 0 120 2 175 28 71 33 125 73 125 92 0 7 -20 38 -45
69 l-46 55 -64 -34 c-104 -55 -193 -56 -260 -3 -26 20 -64 89 -65 116 0 9 54
12 238 12 130 0 248 3 261 7 23 6 23 8 18 79 -10 132 -78 238 -185 291 -47 23
-71 28 -152 30 -68 2 -107 -1 -139 -13z m235 -187 c59 -64 53 -67 -111 -67
-157 0 -164 3 -125 52 32 42 78 59 144 55 53 -3 62 -7 92 -40z"/>
<path d="M6565 2399 c-22 -11 -54 -33 -71 -50 l-32 -31 -12 39 c-16 49 -23 53
-92 53 -45 0 -59 -4 -66 -17 -5 -10 -7 -167 -3 -363 l6 -345 95 0 95 0 5 230
c4 197 8 235 23 263 25 46 75 66 143 57 l53 -6 15 51 c26 89 30 121 15 131
-26 16 -132 9 -174 -12z"/>
<path d="M7020 2411 c-94 -30 -173 -103 -217 -196 -25 -54 -28 -70 -28 -170 0
-128 16 -174 85 -249 61 -66 134 -98 231 -104 92 -5 150 12 205 61 19 16 37
27 41 24 3 -3 2 -37 -2 -74 -6 -60 -11 -72 -44 -104 -63 -64 -166 -63 -310 2
-35 16 -67 27 -71 24 -11 -7 -80 -133 -80 -145 0 -13 79 -52 165 -81 59 -20
89 -24 190 -24 104 0 127 4 172 24 69 31 134 102 162 176 21 56 23 80 28 435
7 430 13 403 -84 398 -55 -3 -59 -5 -75 -38 -10 -19 -20 -39 -22 -45 -2 -5
-16 2 -32 16 -56 52 -112 72 -204 76 -47 1 -96 -1 -110 -6z m230 -191 c93 -48
126 -179 67 -268 -34 -53 -90 -82 -157 -82 -67 0 -123 29 -157 82 -40 59 -40
147 -1 206 16 23 45 50 65 61 51 27 132 27 183 1z"/>
<path d="M5704 1286 c-10 -26 4 -48 28 -44 17 2 23 10 23 28 0 18 -6 26 -23
28 -13 2 -25 -3 -28 -12z"/>
<path d="M5971 1283 c-13 -26 1 -45 30 -41 18 2 24 9 24 28 0 32 -39 41 -54
13z"/>
<path d="M5840 1085 l0 -205 25 0 25 0 0 205 0 205 -25 0 -25 0 0 -205z"/>
<path d="M6996 1081 c-47 -105 -86 -193 -86 -196 0 -3 11 -5 24 -5 19 0 27 10
44 50 l21 50 108 0 109 0 19 -50 c17 -43 23 -50 47 -50 l27 0 -30 68 c-128
287 -144 317 -170 320 -25 3 -31 -7 -113 -187z m148 55 c57 -126 61 -116 -38
-116 -47 0 -86 2 -86 4 0 2 14 34 31 72 17 37 35 78 40 91 5 13 11 23 14 23 3
0 21 -33 39 -74z"/>
<path d="M7350 1075 l0 -195 25 0 25 0 0 195 0 195 -25 0 -25 0 0 -195z"/>
<path d="M5190 1205 c0 -31 -3 -35 -25 -35 -16 0 -25 -6 -25 -15 0 -9 9 -15
24 -15 23 0 24 -2 28 -106 3 -102 5 -107 31 -130 42 -36 129 -29 114 8 -3 10
-15 13 -34 11 -52 -8 -64 16 -61 121 l3 91 43 3 c28 2 42 8 42 18 0 10 -12 14
-45 14 -45 0 -45 0 -45 35 0 31 -3 35 -25 35 -22 0 -25 -4 -25 -35z"/>
<path d="M8980 1205 c0 -31 -3 -35 -25 -35 -16 0 -25 -6 -25 -15 0 -9 9 -15
24 -15 23 0 24 -2 28 -106 3 -102 5 -107 31 -130 42 -36 129 -29 114 8 -3 10
-15 13 -34 11 -52 -8 -64 16 -61 121 l3 91 43 3 c28 2 42 8 42 18 0 10 -12 14
-45 14 -45 0 -45 0 -45 35 0 31 -3 35 -25 35 -22 0 -25 -4 -25 -35z"/>
<path d="M2745 1170 c-120 -36 -135 -219 -22 -271 50 -22 96 -24 141 -5 39 16
48 27 37 45 -7 10 -15 9 -41 -4 -48 -25 -107 -15 -142 25 -16 16 -28 35 -28
40 0 6 48 10 120 10 l120 0 0 33 c0 37 -29 90 -62 111 -31 20 -86 27 -123 16z
m111 -61 c12 -11 24 -29 27 -40 5 -18 -1 -19 -94 -19 -54 0 -99 4 -99 9 0 15
42 62 64 72 30 12 76 2 102 -22z"/>
<path d="M3106 1170 c-15 -5 -37 -17 -47 -26 -18 -16 -19 -16 -19 4 0 17 -6
22 -25 22 l-25 0 0 -145 0 -145 25 0 c25 0 25 1 25 90 0 131 18 160 100 160
30 0 43 -6 59 -26 18 -23 21 -41 21 -125 0 -99 0 -99 25 -99 25 0 25 0 24 93
0 50 -5 107 -12 126 -20 58 -88 90 -151 71z"/>
<path d="M3425 1170 c-120 -36 -135 -219 -22 -271 50 -22 96 -24 141 -5 39 16
48 27 37 45 -7 10 -15 9 -41 -4 -48 -25 -107 -15 -142 25 -16 16 -28 35 -28
40 0 6 48 10 120 10 l120 0 0 33 c0 37 -29 90 -62 111 -31 20 -86 27 -123 16z
m111 -61 c12 -11 24 -29 27 -40 5 -18 -1 -19 -94 -19 -54 0 -99 4 -99 9 0 15
42 62 64 72 30 12 76 2 102 -22z"/>
<path d="M3786 1170 c-15 -5 -37 -17 -47 -26 -18 -16 -19 -16 -19 4 0 17 -6
22 -25 22 l-25 0 0 -145 0 -145 25 0 c25 0 25 0 25 96 0 92 1 97 29 125 16 16
39 29 50 29 16 0 21 6 21 25 0 14 -1 25 -2 24 -2 0 -16 -5 -32 -9z"/>
<path d="M3950 1168 c-19 -5 -43 -17 -54 -26 -69 -63 -57 -185 23 -227 42 -21
119 -19 159 5 32 20 32 20 32 0 0 -12 -6 -36 -14 -55 -19 -45 -74 -64 -138
-46 -62 18 -83 18 -83 1 0 -45 169 -63 222 -24 48 35 53 57 53 222 0 145 -1
152 -20 152 -14 0 -20 -7 -20 -21 0 -20 0 -20 -27 -1 -36 25 -89 33 -133 20z
m131 -64 c27 -25 34 -76 15 -112 -20 -39 -44 -52 -96 -52 -88 0 -134 103 -74
163 39 39 112 40 155 1z"/>
<path d="M4778 1171 c-15 -3 -37 -14 -48 -23 -26 -23 -30 -22 -30 2 0 13 -7
20 -20 20 -19 0 -20 -7 -20 -145 l0 -145 25 0 c25 0 25 0 25 98 0 110 13 137
71 149 22 4 29 11 29 29 0 13 -1 23 -2 23 -2 -1 -15 -4 -30 -8z"/>
<path d="M4937 1166 c-49 -18 -67 -34 -84 -73 -31 -77 -3 -160 67 -196 43 -22
126 -19 165 7 24 16 25 20 13 32 -13 13 -18 13 -44 -1 -53 -27 -130 -10 -154
34 -20 39 -13 41 110 41 118 0 120 0 120 23 0 12 -9 41 -19 64 -30 64 -104 94
-174 69z m93 -41 c28 -15 50 -42 50 -64 0 -7 -34 -11 -95 -11 -61 0 -95 4 -95
11 0 33 52 78 93 79 10 0 31 -7 47 -15z"/>
<path d="M5443 1169 c-45 -11 -66 -28 -55 -46 6 -9 19 -9 56 2 72 22 115 4
129 -52 5 -22 2 -23 -54 -23 -68 0 -122 -19 -138 -48 -44 -83 73 -157 164
-104 34 21 35 21 35 2 0 -13 7 -20 20 -20 19 0 20 7 20 116 0 114 0 116 -29
145 -16 16 -38 29 -48 29 -10 0 -27 2 -38 4 -11 2 -39 0 -62 -5z m132 -160
c12 -18 -4 -58 -30 -75 -29 -19 -89 -21 -110 -4 -18 15 -20 54 -2 68 26 21
131 30 142 11z"/>
<path d="M6216 1170 c-15 -5 -37 -17 -47 -26 -18 -16 -19 -16 -19 4 0 15 -6
22 -20 22 -19 0 -20 -7 -20 -145 0 -135 1 -145 19 -145 17 0 19 10 23 101 4
96 5 103 31 125 36 31 98 33 127 4 17 -17 20 -33 20 -125 l0 -105 25 0 25 0 0
105 c0 111 -12 155 -48 173 -28 15 -85 21 -116 12z"/>
<path d="M6540 1168 c-19 -5 -43 -17 -54 -26 -69 -63 -57 -185 23 -227 42 -21
119 -19 159 5 32 20 32 20 32 0 0 -12 -6 -36 -14 -55 -19 -45 -74 -64 -138
-46 -62 18 -83 18 -83 1 0 -45 169 -63 222 -24 48 35 53 57 53 222 0 145 -1
152 -20 152 -14 0 -20 -7 -20 -21 0 -20 0 -20 -27 -1 -36 25 -89 33 -133 20z
m131 -64 c27 -25 34 -76 15 -112 -20 -39 -44 -52 -96 -52 -88 0 -134 103 -74
163 39 39 112 40 155 1z"/>
<path d="M7673 1169 c-45 -11 -66 -28 -55 -46 6 -9 19 -9 56 2 72 22 115 4
129 -52 5 -22 2 -23 -54 -23 -68 0 -122 -19 -138 -48 -44 -83 73 -157 164
-104 34 21 35 21 35 2 0 -13 7 -20 20 -20 19 0 20 7 20 116 0 114 0 116 -29
145 -16 16 -38 29 -48 29 -10 0 -27 2 -38 4 -11 2 -39 0 -62 -5z m132 -160
c12 -18 -4 -58 -30 -75 -29 -19 -89 -21 -110 -4 -18 15 -20 54 -2 68 26 21
131 30 142 11z"/>
<path d="M8010 1170 c-20 -5 -49 -24 -67 -44 -28 -30 -33 -43 -33 -83 0 -60
16 -91 59 -120 46 -31 127 -32 165 -2 l26 20 0 -39 c0 -77 -84 -113 -172 -74
-43 19 -45 19 -56 1 -19 -29 36 -53 123 -53 133 -2 155 34 155 249 0 138 -1
145 -20 145 -13 0 -20 -7 -20 -20 0 -19 -1 -19 -32 -1 -42 24 -84 31 -128 21z
m125 -65 c19 -18 25 -35 25 -67 -1 -66 -36 -98 -108 -98 -67 0 -108 57 -90
127 11 43 43 63 101 63 38 0 53 -5 72 -25z"/>
<path d="M8379 1170 c-50 -15 -71 -33 -91 -77 -52 -119 38 -231 169 -210 19 3
46 13 60 23 22 14 23 18 11 30 -13 13 -18 13 -44 -1 -37 -19 -68 -19 -109 0
-26 13 -55 49 -55 70 0 3 55 5 121 5 l122 0 -6 40 c-6 47 -27 83 -60 104 -29
18 -86 26 -118 16z m109 -66 c41 -47 32 -54 -73 -54 -52 0 -95 2 -95 5 0 2 6
16 12 31 26 56 113 67 156 18z"/>
<path d="M8740 1173 c-13 -3 -33 -11 -44 -19 -26 -18 -36 -18 -36 1 0 8 -9 15
-20 15 -19 0 -20 -7 -20 -145 l0 -145 25 0 25 0 0 100 c0 94 2 103 25 125 18
19 35 25 68 25 69 0 81 -20 85 -146 4 -94 6 -104 23 -104 18 0 19 8 19 114 0
99 -3 117 -20 139 -17 22 -81 51 -100 46 -3 -1 -16 -4 -30 -6z"/>
<path d="M9230 1170 c-59 -14 -87 -70 -60 -120 10 -18 30 -26 126 -50 50 -12
61 -33 34 -60 -24 -24 -76 -26 -125 -6 -32 14 -36 13 -45 -4 -15 -29 22 -44
107 -45 62 0 75 3 97 24 31 29 35 80 8 104 -10 9 -45 23 -79 31 -76 17 -83 21
-83 51 0 34 53 50 111 35 40 -11 58 -5 59 22 0 6 -92 29 -108 27 -4 -1 -23 -5
-42 -9z"/>
<path d="M4256 1026 c64 -142 65 -146 49 -175 -17 -34 -53 -48 -83 -32 -15 8
-23 7 -32 -4 -17 -20 -5 -33 36 -41 41 -8 87 9 107 40 15 22 157 341 157 352
0 3 -10 4 -22 2 -18 -2 -31 -25 -68 -110 -26 -59 -49 -110 -52 -113 -3 -3 -27
45 -55 107 -43 99 -53 113 -76 116 -26 3 -26 3 39 -142z"/>
<path d="M5710 1025 c0 -138 1 -145 20 -145 19 0 20 7 20 145 0 138 -1 145
-20 145 -19 0 -20 -7 -20 -145z"/>
<path d="M5970 1025 l0 -145 25 0 25 0 0 145 0 145 -25 0 -25 0 0 -145z"/>
</g>
</svg>
